<svg width="975" height="415" viewBox="0 0 975 415" fill="none" xmlns="http://www.w3.org/2000/svg">
<g clip-path="url(#clip0_502_179)">
<path d="M312.973 331.077H268.503V409.125H160.682V331.077H0V251.35L167.814 5.87451H268.503V249.671H312.973V331.077ZM160.682 249.671V202.674C160.682 193.862 161.102 182.113 161.521 167.007C162.36 151.901 162.78 144.348 163.199 143.508H160.262C153.969 157.775 146.837 170.783 138.866 183.372L94.3954 249.671H160.682Z" fill="#B7DFFF"/>
<path d="M632.659 208.129C632.659 279.464 620.493 331.916 596.999 365.066C573.085 398.215 536.586 415 487.08 415C438.834 415 402.754 397.796 378.001 362.968C353.668 328.14 341.502 276.527 341.502 208.129C341.502 136.375 353.249 83.9231 377.582 50.3539C401.495 16.7846 437.995 0 487.5 0C535.327 0 571.827 17.6239 596.16 52.452C620.493 87.2801 632.659 138.893 632.659 208.129ZM449.742 208.129C449.742 253.868 452.679 285.339 458.133 302.123C464.006 319.328 473.236 327.72 486.661 327.72C500.086 327.72 509.735 318.908 515.609 301.284C521.063 283.66 524 252.609 524 208.129C524 163.231 521.063 132.179 515.609 114.135C509.735 96.092 500.506 87.2801 487.08 87.2801C473.655 87.2801 464.006 96.092 458.552 113.296C452.679 130.501 449.742 161.972 449.742 208.129Z" fill="#B7DFFF"/>
<path d="M975 331.077H930.529V409.125H822.709V331.077H662.027V251.35L829.841 5.87451H930.529V249.671H975V331.077ZM823.128 249.671V202.674C823.128 193.862 823.548 182.113 823.967 167.007C824.807 151.901 825.226 144.348 825.646 143.508H822.709C816.416 157.775 809.284 170.783 801.313 183.372L756.422 250.091H823.128V249.671Z" fill="#B7DFFF"/>
</g>
<g clip-path="url(#clip1_502_179)">
<path d="M592.274 219.139C625.336 219.139 652.138 192.334 652.138 159.267C652.138 126.2 625.336 99.3943 592.274 99.3943C559.211 99.3943 532.409 126.2 532.409 159.267C532.409 192.334 559.211 219.139 592.274 219.139Z" fill="white"/>
<path d="M395.318 219.139C428.38 219.139 455.182 192.334 455.182 159.267C455.182 126.2 428.38 99.3943 395.318 99.3943C362.255 99.3943 335.453 126.2 335.453 159.267C335.453 192.334 362.255 219.139 395.318 219.139Z" fill="white"/>
<path d="M430.592 110.945C436.72 120.373 440.255 131.531 440.255 143.631C440.255 176.71 413.466 203.504 380.391 203.504C367.192 203.504 355.015 199.182 345.116 191.953C355.801 208.375 374.263 219.14 395.318 219.14C428.392 219.14 455.182 192.346 455.182 159.267C455.104 139.467 445.44 121.866 430.592 110.945Z" fill="#EFEFEF"/>
<path d="M627.47 110.945C633.598 120.373 637.133 131.531 637.133 143.631C637.133 176.71 610.343 203.504 577.268 203.504C564.07 203.504 551.893 199.182 541.994 191.953C552.678 208.375 571.141 219.14 592.195 219.14C625.27 219.14 652.06 192.346 652.06 159.267C652.06 139.467 642.397 121.866 627.47 110.945Z" fill="#EFEFEF"/>
<path d="M395.318 221.89C360.829 221.89 332.703 193.76 332.703 159.267C332.703 124.773 360.829 96.6443 395.318 96.6443C429.807 96.6443 457.932 124.773 457.932 159.267C457.932 193.76 429.885 221.89 395.318 221.89ZM395.318 102.144C363.814 102.144 338.203 127.759 338.203 159.267C338.203 190.775 363.814 216.389 395.318 216.389C426.821 216.389 452.433 190.775 452.433 159.267C452.433 127.759 426.821 102.144 395.318 102.144Z" fill="#231F20"/>
<path d="M393.746 175.139C404.724 175.139 413.623 166.239 413.623 155.26C413.623 144.281 404.724 135.381 393.746 135.381C382.769 135.381 373.87 144.281 373.87 155.26C373.87 166.239 382.769 175.139 393.746 175.139Z" fill="#231F20"/>
<path d="M388.876 159.817C393.388 159.817 397.046 156.159 397.046 151.645C397.046 147.132 393.388 143.474 388.876 143.474C384.363 143.474 380.705 147.132 380.705 151.645C380.705 156.159 384.363 159.817 388.876 159.817Z" fill="white"/>
<path d="M592.274 175.139C603.251 175.139 612.15 166.239 612.15 155.26C612.15 144.281 603.251 135.381 592.274 135.381C581.296 135.381 572.397 144.281 572.397 155.26C572.397 166.239 581.296 175.139 592.274 175.139Z" fill="#231F20"/>
<path d="M587.403 159.817C591.915 159.817 595.573 156.159 595.573 151.645C595.573 147.132 591.915 143.474 587.403 143.474C582.89 143.474 579.232 147.132 579.232 151.645C579.232 156.159 582.89 159.817 587.403 159.817Z" fill="white"/>
<path d="M592.274 221.89C557.785 221.89 529.659 193.76 529.659 159.267C529.659 124.773 557.785 96.6443 592.274 96.6443C626.763 96.6443 654.888 124.773 654.888 159.267C654.888 193.76 626.841 221.89 592.274 221.89ZM592.274 102.144C560.77 102.144 535.159 127.759 535.159 159.267C535.159 190.775 560.77 216.389 592.274 216.389C623.777 216.389 649.389 190.775 649.389 159.267C649.389 127.759 623.777 102.144 592.274 102.144Z" fill="#231F20"/>
<path d="M304.657 86.4298C316.755 94.2871 316.441 71.8938 338.831 56.4149C357.451 43.529 374.97 50.9148 375.049 40.3075C375.127 29.7001 353.837 22.9428 325.711 40.0718C304.735 52.8006 290.594 77.2368 304.657 86.4298Z" fill="#231F20"/>
<path d="M669.029 80.4583C656.695 87.9227 657.716 65.608 635.876 49.3434C617.65 35.8288 599.973 42.6647 600.209 32.0573C600.444 21.45 621.97 15.3999 649.546 33.3931C670.051 46.9076 683.328 71.7367 669.029 80.4583Z" fill="#231F20"/>
<path d="M501.927 359.549C456.518 359.628 404.824 357.899 405.688 331.499C406.552 305.098 451.568 243.497 501.927 246.404C552.286 249.39 606.965 302.898 597.066 332.599C587.167 362.378 526.596 359.549 501.927 359.549Z" fill="#231F20"/>
<path d="M459.817 390.586C477.808 384.771 497.292 383.75 515.832 387.521C521.175 388.621 526.36 390.114 531.466 391.921C532.409 392.236 533.509 391.529 533.745 390.664C534.059 389.643 533.43 388.779 532.488 388.386C514.104 381.707 494.149 380.057 474.901 383.2C469.481 384.064 464.138 385.4 458.953 387.05C456.596 387.757 457.539 391.293 459.817 390.586Z" fill="#231F20"/>
</g>
<defs>
<clipPath id="clip0_502_179">
<rect width="975" height="415" fill="white"/>
</clipPath>
<clipPath id="clip1_502_179">
<rect width="376" height="370" fill="white" transform="translate(299 22)"/>
</clipPath>
</defs>
</svg>
